<?xml version="1.0" encoding="utf-8"?>
<!-- Generator: Adobe Illustrator 27.4.0, SVG Export Plug-In . SVG Version: 6.00 Build 0)  -->
<svg version="1.1" id="Layer_1" xmlns="http://www.w3.org/2000/svg" xmlns:xlink="http://www.w3.org/1999/xlink" x="0px" y="0px"
	 viewBox="0 0 16 16" style="enable-background:new 0 0 16 16;" xml:space="preserve">
<style type="text/css">
	.st0{fill:#FFFFFF;}
</style>
<path class="st0" d="M1.51,6.95C1.21,6.95,1,7.03,0.86,7.2c-0.13,0.16-0.2,0.39-0.2,0.68c0,0.14,0.02,0.27,0.05,0.38
	C0.75,8.37,0.8,8.47,0.86,8.55C0.93,8.63,1.01,8.7,1.11,8.74c0.1,0.04,0.21,0.07,0.35,0.07c0.07,0,0.13,0,0.18,0
	c0.05,0,0.1-0.01,0.14-0.02V7.8h0.64v1.41C2.34,9.24,2.21,9.27,2.04,9.3C1.87,9.34,1.66,9.36,1.41,9.36c-0.21,0-0.41-0.03-0.58-0.1
	C0.66,9.19,0.51,9.1,0.39,8.97S0.17,8.69,0.1,8.51C0.03,8.32,0,8.11,0,7.88c0-0.24,0.04-0.45,0.11-0.63s0.18-0.34,0.3-0.46
	c0.13-0.13,0.28-0.23,0.45-0.29c0.18-0.07,0.36-0.1,0.56-0.1c0.13,0,0.25,0.01,0.36,0.03c0.11,0.02,0.2,0.04,0.28,0.06
	C2.15,6.5,2.21,6.52,2.26,6.55c0.05,0.02,0.09,0.04,0.11,0.06L2.19,7.12C2.1,7.07,2,7.03,1.88,7C1.77,6.97,1.65,6.95,1.51,6.95z
	 M2.86,8.24c0-0.19,0.03-0.36,0.09-0.5c0.06-0.15,0.14-0.27,0.23-0.36c0.1-0.1,0.21-0.17,0.33-0.22C3.64,7.11,3.77,7.08,3.9,7.08
	c0.31,0,0.55,0.09,0.73,0.28c0.18,0.19,0.27,0.46,0.27,0.83c0,0.04,0,0.08,0,0.12c0,0.04-0.01,0.08-0.01,0.11H3.49
	c0.01,0.13,0.07,0.23,0.18,0.3c0.1,0.07,0.24,0.11,0.42,0.11c0.11,0,0.22-0.01,0.33-0.03c0.11-0.02,0.2-0.05,0.27-0.08l0.08,0.5
	C4.73,9.24,4.69,9.26,4.64,9.27S4.52,9.3,4.45,9.31C4.38,9.33,4.31,9.34,4.24,9.35S4.08,9.36,4.01,9.36c-0.19,0-0.36-0.03-0.51-0.09
	C3.35,9.22,3.24,9.14,3.14,9.04c-0.09-0.1-0.16-0.22-0.21-0.36C2.89,8.54,2.86,8.4,2.86,8.24z M4.3,8c0-0.05-0.01-0.1-0.03-0.15
	C4.26,7.8,4.24,7.76,4.2,7.72C4.17,7.68,4.13,7.65,4.08,7.63C4.04,7.6,3.98,7.59,3.91,7.59c-0.07,0-0.13,0.01-0.18,0.04
	C3.68,7.65,3.64,7.68,3.61,7.72C3.58,7.75,3.55,7.8,3.53,7.85C3.51,7.9,3.5,7.95,3.49,8H4.3z M5.35,6.6l0.61-0.1v0.64h0.74v0.51
	H5.96v0.76c0,0.13,0.02,0.23,0.07,0.31C6.07,8.8,6.16,8.83,6.3,8.83c0.07,0,0.13-0.01,0.2-0.02C6.57,8.8,6.64,8.79,6.69,8.76
	l0.09,0.48C6.71,9.27,6.62,9.3,6.53,9.32C6.44,9.34,6.33,9.35,6.2,9.35c-0.17,0-0.31-0.02-0.41-0.07C5.68,9.24,5.59,9.18,5.52,9.1
	C5.46,9.01,5.41,8.92,5.38,8.8C5.36,8.69,5.35,8.56,5.35,8.42V6.6z M10.13,9.3c-0.03-0.1-0.06-0.2-0.1-0.3
	c-0.04-0.1-0.07-0.21-0.11-0.31H8.81C8.77,8.79,8.74,8.89,8.7,9C8.66,9.1,8.63,9.2,8.6,9.3H7.93C8.04,9,8.14,8.71,8.24,8.45
	c0.1-0.26,0.19-0.51,0.28-0.74C8.61,7.49,8.7,7.27,8.79,7.06c0.09-0.21,0.18-0.41,0.28-0.61h0.61c0.09,0.2,0.18,0.4,0.28,0.61
	c0.09,0.21,0.18,0.42,0.27,0.65c0.09,0.23,0.19,0.48,0.28,0.74s0.2,0.54,0.3,0.85H10.13z M9.36,7.1C9.35,7.14,9.32,7.2,9.3,7.27
	C9.27,7.34,9.24,7.42,9.2,7.52c-0.04,0.09-0.08,0.2-0.12,0.31C9.04,7.94,9,8.05,8.96,8.18h0.81C9.72,8.05,9.68,7.94,9.64,7.82
	C9.6,7.71,9.56,7.61,9.52,7.52C9.48,7.42,9.45,7.34,9.42,7.27C9.4,7.2,9.38,7.14,9.36,7.1z M12.04,6.42c0.42,0,0.75,0.08,0.98,0.23
	c0.23,0.15,0.34,0.39,0.34,0.73c0,0.34-0.12,0.59-0.35,0.74c-0.23,0.15-0.56,0.23-0.99,0.23h-0.2V9.3h-0.64V6.5
	c0.14-0.03,0.29-0.05,0.44-0.06C11.78,6.43,11.92,6.42,12.04,6.42z M12.08,6.97c-0.05,0-0.09,0-0.14,0c-0.04,0-0.08,0.01-0.12,0.01
	V7.8h0.2c0.22,0,0.39-0.03,0.5-0.09c0.11-0.06,0.17-0.17,0.17-0.34c0-0.08-0.02-0.15-0.05-0.2c-0.03-0.05-0.07-0.09-0.12-0.12
	C12.47,7.02,12.41,7,12.33,6.99C12.26,6.98,12.17,6.97,12.08,6.97z M14.68,6.42c0.42,0,0.75,0.08,0.98,0.23
	C15.89,6.8,16,7.04,16,7.38c0,0.34-0.12,0.59-0.35,0.74c-0.23,0.15-0.56,0.23-0.99,0.23h-0.2V9.3h-0.64V6.5
	c0.14-0.03,0.29-0.05,0.44-0.06C14.43,6.43,14.56,6.42,14.68,6.42z M14.72,6.97c-0.05,0-0.09,0-0.14,0c-0.04,0-0.08,0.01-0.12,0.01
	V7.8h0.2c0.22,0,0.39-0.03,0.5-0.09c0.11-0.06,0.17-0.17,0.17-0.34c0-0.08-0.02-0.15-0.05-0.2c-0.03-0.05-0.07-0.09-0.12-0.12
	C15.12,7.02,15.05,7,14.98,6.99C14.9,6.98,14.82,6.97,14.72,6.97z"/>
</svg>
