<svg width="180" height="81" viewBox="0 0 180 81" fill="none" xmlns="http://www.w3.org/2000/svg">
<path fill-rule="evenodd" clip-rule="evenodd" d="M28.9091 54.3247C30.0953 56.381 32.2207 57.6086 34.5946 57.6086H34.5946C37.2867 57.6086 39.7964 56.161 41.1443 53.8306L44.2978 48.3784H28.5957C27.7356 50.2946 27.8401 52.4713 28.9091 54.3247Z" fill="#2CB5B4"/>
<path fill-rule="evenodd" clip-rule="evenodd" d="M55.2533 53.8255C56.6006 56.159 59.1114 57.6086 61.8059 57.6086H61.8074C64.1815 57.6086 66.3076 56.3812 67.4946 54.3251C68.5644 52.4723 68.67 50.2953 67.8117 48.3784H52.1084L55.2533 53.8255Z" fill="#2CB5B4"/>
<path fill-rule="evenodd" clip-rule="evenodd" d="M66.42 45.8972L60.7812 36.1333H35.6272L29.9883 45.8972H66.42Z" fill="#2CB5B4"/>
<path fill-rule="evenodd" clip-rule="evenodd" d="M48.5093 24.0249H47.91C44.649 24.0249 41.6102 25.7791 39.9793 28.6029L37.0605 33.6522H59.3499L56.4395 28.6019C54.8092 25.7791 51.7703 24.0249 48.5093 24.0249Z" fill="#2CB5B4"/>
<path fill-rule="evenodd" clip-rule="evenodd" d="M78.6357 44.5805C78.6357 42.6291 79.4994 41.1896 81.1309 40.5498C81.8667 40.2619 83.1462 40.102 84.9696 40.102H85.9292C86.729 40.102 87.4328 40.134 88.0725 40.198V38.3746C88.0725 36.0394 86.8889 35.2396 84.2018 35.2396C83.0822 35.2396 81.9946 35.3996 80.907 35.7195C80.4271 35.8474 80.1712 35.8474 80.0753 35.4636L79.9153 34.7918C79.7874 34.4079 79.8833 34.184 80.2672 34.088C81.6427 33.6722 83.0182 33.4482 84.3618 33.4482C88.4564 33.4482 90.1518 34.8238 90.1518 38.1506V49.0909C90.1518 49.3468 90.0879 49.4108 89.7999 49.4108H88.7443C88.4564 49.4108 88.3285 49.3149 88.3285 49.0909L88.2645 48.0033H88.2005C87.4968 49.1229 86.3771 49.6987 84.8096 49.6987H83.2102C81.8027 49.6987 80.5231 49.2829 79.7874 48.5471C79.0196 47.7794 78.6357 46.7877 78.6357 45.5401V44.5805ZM80.747 45.2842C80.747 46.2759 80.971 46.9477 81.4188 47.3635C81.8347 47.7474 82.4744 47.9393 83.3701 47.9393H84.6817C86.825 47.9393 88.0725 46.7877 88.0725 44.6125V41.9573C87.5607 41.8934 86.9209 41.8614 86.1532 41.8614H84.3618C83.0182 41.8614 82.0906 42.0853 81.5467 42.5012C81.0029 42.917 80.747 43.6208 80.747 44.6125V45.2842Z" fill="#2CB5B4"/>
<path fill-rule="evenodd" clip-rule="evenodd" d="M94.502 28.1063C94.502 27.8824 94.6299 27.7544 94.8858 27.7544H96.1974C96.4533 27.7544 96.5812 27.8824 96.5812 28.1063V45.2205C96.5812 46.3721 96.6132 46.756 96.8691 47.2358C97.0291 47.4597 97.413 47.5877 98.0207 47.5877H98.8844C99.0764 47.5877 99.2683 47.6196 99.2683 47.9396V49.0272C99.2683 49.2831 99.1724 49.4111 98.9484 49.4111H97.7328C96.5812 49.4111 95.7495 49.1552 95.2697 48.6753C94.7578 48.1315 94.502 47.1399 94.502 45.7323V28.1063Z" fill="#2CB5B4"/>
<path fill-rule="evenodd" clip-rule="evenodd" d="M102.403 29.5138C102.403 28.4901 102.979 28.0103 103.875 28.0103H104.003C104.93 28.0103 105.41 28.5221 105.41 29.5138V29.7057C105.41 30.7293 104.867 31.2412 104.003 31.2412H103.875C102.819 31.2412 102.403 30.7613 102.403 29.7057V29.5138ZM102.883 34.0882C102.883 33.8643 103.011 33.7363 103.267 33.7363H104.579C104.835 33.7363 104.962 33.8643 104.962 34.0882V49.1551C104.962 49.3151 104.867 49.411 104.675 49.411H103.139C102.979 49.411 102.883 49.3151 102.883 49.1551V34.0882Z" fill="#2CB5B4"/>
<path fill-rule="evenodd" clip-rule="evenodd" d="M109.024 40.9977C109.024 35.3356 110.912 33.4482 115.166 33.4482C117.214 33.4482 118.653 34.088 119.517 35.3676H119.581L119.741 34.12C119.773 33.8641 119.933 33.7362 120.221 33.7362H120.988C121.34 33.7362 121.436 33.8001 121.436 34.152V54.721C121.436 54.945 121.34 55.0729 121.116 55.0729H119.677C119.453 55.0729 119.357 54.945 119.357 54.721V48.0033H119.293C118.397 49.1229 116.99 49.6987 115.07 49.6987C110.72 49.6987 109.024 47.6194 109.024 42.5012V40.9977ZM111.136 42.3412C111.136 44.5165 111.488 46.02 112.191 46.8197C112.863 47.5874 113.759 47.9074 115.326 47.9074C117.885 47.9074 119.357 46.5958 119.357 44.0686V39.3343C119.357 36.7431 117.885 35.2396 115.198 35.2396C113.791 35.2396 112.959 35.5275 112.319 36.1993C111.52 37.063 111.136 38.7584 111.136 41.2856V42.3412Z" fill="#2CB5B4"/>
<path fill-rule="evenodd" clip-rule="evenodd" d="M125.595 34.2482C125.595 33.9602 125.787 33.7363 126.043 33.7363H127.226C127.514 33.7363 127.674 33.8962 127.674 34.1842V44.6446C127.674 45.9242 127.898 46.628 128.506 47.1398C129.05 47.6516 130.009 47.9075 131.385 47.9075C132.696 47.9075 133.688 47.6196 134.328 47.0118C134.872 46.5 135.063 45.9242 135.063 44.6446V34.1522C135.063 33.8962 135.223 33.7363 135.447 33.7363H136.791C137.015 33.7363 137.143 33.8643 137.143 34.1522V44.9005C137.143 46.532 136.663 47.7476 135.735 48.5473C134.808 49.347 133.56 49.6989 131.385 49.6989C129.401 49.6989 127.962 49.315 127.034 48.5473C126.075 47.7476 125.595 46.532 125.595 44.9005V34.2482Z" fill="#2CB5B4"/>
<path fill-rule="evenodd" clip-rule="evenodd" d="M140.469 44.5805C140.469 42.6291 141.332 41.1896 142.964 40.5498C143.7 40.2619 144.979 40.102 146.803 40.102H147.762C148.562 40.102 149.266 40.134 149.906 40.198V38.3746C149.906 36.0394 148.722 35.2396 146.035 35.2396C144.915 35.2396 143.828 35.3996 142.74 35.7195C142.26 35.8474 142.004 35.8474 141.908 35.4636L141.748 34.7918C141.62 34.4079 141.716 34.184 142.1 34.088C143.476 33.6722 144.851 33.4482 146.195 33.4482C150.289 33.4482 151.985 34.8238 151.985 38.1506V49.0909C151.985 49.3468 151.921 49.4108 151.633 49.4108H150.577C150.289 49.4108 150.161 49.3149 150.161 49.0909L150.097 48.0033H150.033C149.33 49.1229 148.21 49.6987 146.643 49.6987H145.043C143.636 49.6987 142.356 49.2829 141.62 48.5471C140.853 47.7794 140.469 46.7877 140.469 45.5401V44.5805ZM142.58 45.2842C142.58 46.2759 142.804 46.9477 143.252 47.3635C143.668 47.7474 144.307 47.9393 145.203 47.9393H146.515C148.658 47.9393 149.906 46.7877 149.906 44.6125V41.9573C149.394 41.8934 148.754 41.8614 147.986 41.8614H146.195C144.851 41.8614 143.924 42.0853 143.38 42.5012C142.836 42.917 142.58 43.6208 142.58 44.6125V45.2842Z" fill="#2CB5B4"/>
</svg>
