<svg width="180" height="81" viewBox="0 0 180 81" fill="none" xmlns="http://www.w3.org/2000/svg">
<path fill-rule="evenodd" clip-rule="evenodd" d="M26.6816 54.719L43.8313 64.6204C45.4883 65.5771 47.5297 65.5771 49.1867 64.6204L66.3364 54.719C67.9934 53.7623 69.0141 51.9944 69.0141 50.0811V30.2783C69.0141 28.365 67.9934 26.597 66.3364 25.6404L49.1867 15.739C47.5297 14.7823 45.4883 14.7823 43.8313 15.739L26.6816 25.6404C25.0246 26.597 24.0039 28.365 24.0039 30.2783V50.0811C24.0039 51.9944 25.0246 53.7623 26.6816 54.719ZM50.4644 44.5566C46.7666 47.8983 47.2636 50.4444 49.6998 53.1401H49.6931C50.3847 53.9033 50.8096 54.9126 50.8096 56.0236C50.8096 58.3988 48.8842 60.3243 46.509 60.3243C44.1338 60.3243 42.2084 58.3988 42.2084 56.0236C42.2084 54.9126 42.6333 53.9033 43.3248 53.1401H43.3183C45.7545 50.4444 46.2515 47.8983 42.5536 44.5566H42.5636C41.3666 43.4768 40.6097 41.9186 40.6097 40.1796C40.6097 38.4407 41.3666 36.8825 42.5636 35.8028H42.5536C46.2515 32.461 45.7545 29.915 43.3183 27.2192H43.3248C42.6333 26.456 42.2084 25.4467 42.2084 24.3357C42.2084 21.9606 44.1338 20.0351 46.509 20.0351C48.8842 20.0351 50.8096 21.9606 50.8096 24.3357C50.8096 25.4467 50.3847 26.456 49.6931 27.2192H49.6998C47.2636 29.915 46.7665 32.461 50.4644 35.8028H50.4544C51.6514 36.8825 52.4083 38.4407 52.4083 40.1796C52.4083 41.9186 51.6514 43.4768 50.4544 44.5566H50.4644ZM37.9011 44.4715C36.6128 43.046 35.8759 41.6613 36.0057 40.1797C35.8759 38.6981 36.6128 37.3134 37.9011 35.8879H37.8945C38.586 35.1247 39.0109 34.1155 39.0109 33.0044C39.0109 30.6292 37.0855 28.7038 34.7103 28.7038C32.3352 28.7038 30.4098 30.6292 30.4098 33.0044C30.4098 34.1155 30.8347 35.1247 31.5262 35.8879H31.5196C32.8079 37.3134 33.5448 38.6981 33.415 40.1797C33.5448 41.6613 32.8079 43.046 31.5196 44.4715H31.5262C30.8347 45.2347 30.4098 46.2439 30.4098 47.355C30.4098 49.7301 32.3352 51.6556 34.7103 51.6556C37.0855 51.6556 39.0109 49.7301 39.0109 47.355C39.0109 46.2439 38.586 45.2347 37.8945 44.4715H37.9011ZM59.6031 40.1797C59.4733 41.6613 60.2101 43.046 61.4984 44.4715H61.4918C62.1833 45.2347 62.6083 46.2439 62.6083 47.355C62.6083 49.7301 60.6828 51.6556 58.3077 51.6556C55.9325 51.6556 54.0071 49.7301 54.0071 47.355C54.0071 46.2439 54.432 45.2347 55.1235 44.4715H55.1169C56.4052 43.046 57.1421 41.6613 57.0123 40.1797C57.1421 38.6981 56.4052 37.3134 55.1169 35.8879H55.1235C54.432 35.1247 54.0071 34.1155 54.0071 33.0044C54.0071 30.6292 55.9325 28.7038 58.3077 28.7038C60.6828 28.7038 62.6083 30.6292 62.6083 33.0044C62.6083 34.1155 62.1833 35.1247 61.4918 35.8879H61.4984C60.2101 37.3134 59.4733 38.6981 59.6031 40.1797Z" fill="#2CB5B4"/>
<path fill-rule="evenodd" clip-rule="evenodd" d="M83.4209 30.8447V43.6334C83.4209 44.4782 83.7495 44.9709 84.4299 44.9709C84.8992 44.9709 85.3216 44.8067 85.744 44.5955L85.9082 47.2002C85.345 47.4348 84.2891 47.7398 83.1393 47.7398C81.3091 47.7398 80.1357 46.8482 80.1357 44.4312V30.8447H83.4209Z" fill="#2CB5B4"/>
<path fill-rule="evenodd" clip-rule="evenodd" d="M99.6821 43.7272C99.6821 44.4312 99.8699 44.9708 100.527 44.9708C100.996 44.9708 101.372 44.8066 101.771 44.5954L101.911 47.2001C101.301 47.4816 100.292 47.7397 99.2363 47.7397C97.8518 47.7397 96.9836 47.1766 96.6316 45.9564C95.7869 46.9419 94.4259 47.7163 92.7364 47.7163C89.3104 47.7163 86.9873 45.0882 86.9873 41.4041C86.9873 37.6731 89.3104 35.0215 92.7364 35.0215C94.332 35.0215 95.5757 35.4673 96.397 36.2886V35.2326H99.6821V43.7272ZM96.397 38.9871C95.8338 38.4005 94.7544 37.8842 93.6515 37.8842C91.61 37.8842 90.3194 39.2922 90.3194 41.4041C90.3194 43.469 91.6335 44.8769 93.6515 44.8769C94.7309 44.8769 95.7399 44.3842 96.397 43.7741V38.9871Z" fill="#2CB5B4"/>
<path fill-rule="evenodd" clip-rule="evenodd" d="M110.876 47.7398C109.209 47.7398 108.013 47.2236 107.191 46.4023V47.5052H103.906V30.8447H107.191V36.2652C108.036 35.5144 109.303 35.0216 110.876 35.0216C114.325 35.0216 116.648 37.6497 116.648 41.3573C116.648 45.0648 114.325 47.7398 110.876 47.7398ZM109.96 37.8843C108.857 37.8843 107.825 38.4006 107.191 39.0341V43.7507C107.755 44.3139 108.811 44.877 109.96 44.877C111.978 44.877 113.292 43.4691 113.292 41.3573C113.292 39.2688 111.978 37.8843 109.96 37.8843Z" fill="#2CB5B4"/>
<path fill-rule="evenodd" clip-rule="evenodd" d="M124.837 34.9043C128.685 34.9043 131.454 37.6732 131.454 41.4042C131.454 45.0883 128.685 47.8337 124.837 47.8337C121.036 47.8337 118.267 45.0883 118.267 41.4042C118.267 37.6732 121.036 34.9043 124.837 34.9043ZM124.837 44.8302C126.902 44.8302 128.286 43.3284 128.286 41.4042C128.286 39.4331 126.902 37.9078 124.837 37.9078C122.819 37.9078 121.434 39.4331 121.434 41.4042C121.434 43.3284 122.819 44.8302 124.837 44.8302Z" fill="#2CB5B4"/>
<path fill-rule="evenodd" clip-rule="evenodd" d="M134.81 39.034C134.81 38.3066 134.646 37.7904 133.965 37.7904C133.473 37.7904 132.91 38.0251 132.722 38.1424L132.581 35.5612C132.745 35.3969 133.965 35.0215 135.256 35.0215C136.664 35.0215 137.579 35.5847 137.931 36.8753C138.518 35.7254 139.41 35.0215 141.005 35.0215C142.155 35.0215 143.047 35.4438 143.211 35.7254L142.742 38.6821C142.554 38.424 141.615 38.0485 140.489 38.0485C138.917 38.0485 138.307 39.4095 138.095 40.8409V47.5051H134.81V39.034Z" fill="#2CB5B4"/>
<path fill-rule="evenodd" clip-rule="evenodd" d="M155.881 46.1677C154.614 47.2002 152.807 47.8337 150.719 47.8337C146.096 47.8337 144.031 45.0179 144.031 41.4042C144.031 37.7436 146.566 34.9043 150.508 34.9043C154.239 34.9043 155.999 37.1804 155.999 40.0197C155.999 40.7706 155.881 41.9439 155.741 42.4132H147.41C147.715 44.1262 148.818 45.0883 150.813 45.0883C152.362 45.0883 153.793 44.4548 154.638 43.8212L155.881 46.1677ZM152.854 39.4566C152.854 38.471 152.103 37.6263 150.437 37.6263C148.677 37.6263 147.739 38.6822 147.504 39.8789H152.831C152.854 39.7616 152.854 39.5739 152.854 39.4566Z" fill="#2CB5B4"/>
</svg>
