<svg width="180" height="81" viewBox="0 0 180 81" fill="none" xmlns="http://www.w3.org/2000/svg">
<path fill-rule="evenodd" clip-rule="evenodd" d="M53.7504 25.2076L51.6719 32.3357H62.363L36.0303 66.9845L42.9602 42.7302H36.426L42.762 14.021H76.2228L67.8083 25.2076H53.7504Z" fill="#2CB5B4"/>
<path fill-rule="evenodd" clip-rule="evenodd" d="M81.9336 30.1992C83.1514 30.1992 84.0282 30.3941 84.759 30.735L84.3449 33.3899C83.9308 33.1951 83.3463 33.0489 82.6156 33.0489C81.3734 33.0489 80.3017 33.4874 80.0825 34.9001L79.912 35.8987H83.4681L83.0296 38.7484H79.4492L78.0609 47.5898H74.6753L76.088 38.7484H74.0664L74.5292 35.8987H76.5264L76.7456 34.559C77.2814 31.1248 79.7415 30.1992 81.9336 30.1992Z" fill="#2CB5B4"/>
<path fill-rule="evenodd" clip-rule="evenodd" d="M96.6687 35.8989L94.8176 47.5901H91.8461L92.0896 46.08C91.091 47.2247 89.6784 47.9311 88.0465 47.9311C85.0263 47.9311 83.4918 45.739 83.9302 43.0111L85.0506 35.8989H88.4118L87.3402 42.7918C87.0722 44.375 87.8516 45.0083 89.0694 45.0083C90.3847 45.0083 91.4807 44.2289 92.114 43.4495L93.3075 35.8989H96.6687Z" fill="#2CB5B4"/>
<path fill-rule="evenodd" clip-rule="evenodd" d="M102.612 53.2892C100.566 53.2892 98.8369 52.8021 97.5947 52.0957L98.0575 49.246C99.2267 50.0498 100.664 50.4395 102.296 50.4395C104.39 50.4395 106.241 49.587 106.607 47.3219L106.777 46.2502C106.144 47.0296 104.877 47.9308 102.807 47.9308C99.1048 47.9308 97.4243 44.8375 97.9601 41.525C98.4472 38.4561 100.883 35.5576 104.463 35.5576C106.436 35.5576 107.727 36.4101 108.458 37.7497L108.774 35.8986H111.795L109.992 47.3706C109.31 51.6573 106.046 53.2892 102.612 53.2892ZM103.757 45.0811C105.34 45.0811 106.607 44.1311 107.264 43.0838L107.727 40.2341C107.435 39.2355 106.485 38.4073 105.121 38.4073C103.099 38.4073 101.638 39.8444 101.321 41.8417C101.053 43.5466 101.906 45.0811 103.757 45.0811Z" fill="#2CB5B4"/>
<path fill-rule="evenodd" clip-rule="evenodd" d="M112.842 47.59L114.693 35.8989H118.079L116.227 47.59H112.842ZM116.836 33.9747C115.716 33.9747 114.815 33.2684 115.034 31.8313C115.229 30.6135 116.154 30.1021 117.153 30.1021C118.298 30.1021 119.175 30.8327 118.955 32.2454C118.76 33.4632 117.835 33.9747 116.836 33.9747Z" fill="#2CB5B4"/>
<path fill-rule="evenodd" clip-rule="evenodd" d="M124.289 47.9308C120.587 47.9308 118.906 44.8375 119.442 41.525C119.929 38.4561 122.316 35.5576 125.945 35.5576C128.089 35.5576 129.355 36.7024 129.964 37.8471L130.281 35.8986H133.252L131.401 47.5898H128.43L128.698 45.8605C127.797 47.0052 126.36 47.9308 124.289 47.9308ZM125.239 45.0811C126.822 45.0811 128.089 44.0824 128.746 43.0351L129.209 40.3072C128.941 39.2598 127.991 38.4073 126.603 38.4073C124.582 38.4073 123.12 39.8931 122.803 41.8173C122.536 43.5466 123.388 45.0811 125.239 45.0811Z" fill="#2CB5B4"/>
<path fill-rule="evenodd" clip-rule="evenodd" d="M140.925 31.6851L140.268 35.8987H143.97L143.507 38.7485H139.805L139.05 43.4249C138.855 44.6671 139.342 45.0812 140.584 45.0812C141.412 45.0812 142.143 44.935 142.849 44.6428L142.411 47.4194C141.68 47.7361 140.535 47.9309 139.366 47.9309C137.15 47.9309 135.177 46.7861 135.64 43.8877L136.444 38.7485H134.471L134.933 35.8987H136.882L137.442 32.5132L140.925 31.6851Z" fill="#2CB5B4"/>
</svg>
