<svg width="180" height="81" viewBox="0 0 180 81" fill="none" xmlns="http://www.w3.org/2000/svg">
<path fill-rule="evenodd" clip-rule="evenodd" d="M59.6506 47.8711C56.9209 53.034 51.4939 56.56 45.2589 56.56H29.4111V47.8711H59.6506Z" fill="#2CB5B4"/>
<path fill-rule="evenodd" clip-rule="evenodd" d="M59.6506 32.7138H28.0117V24.0249H45.2593C51.4943 24.0249 56.9209 27.5509 59.6506 32.7138Z" fill="#2CB5B4"/>
<path fill-rule="evenodd" clip-rule="evenodd" d="M61.328 40.2925C61.328 41.645 61.1509 42.9989 60.8001 44.3321H31.709V36.2529H60.8001C61.1509 37.5857 61.328 38.9395 61.328 40.2925Z" fill="#2CB5B4"/>
<path fill-rule="evenodd" clip-rule="evenodd" d="M82.4559 31.7109V45.927H80.1374L79.9747 44.5441C79.2018 45.744 77.9612 46.1507 76.741 46.1507C73.792 46.1507 71.5752 44.1983 71.5752 40.9036C71.5752 37.4462 73.7513 35.6565 76.68 35.6565C77.7375 35.6565 79.3849 36.226 79.9747 37.2631V31.7109H82.4559ZM74.0564 40.9036C74.0564 42.6526 75.3173 43.8526 76.9037 43.8526C78.4697 43.8526 79.812 42.7137 79.812 40.9036C79.812 39.1546 78.4697 37.975 76.9037 37.975C75.3173 37.975 74.0564 39.0935 74.0564 40.9036Z" fill="#2CB5B4"/>
<path fill-rule="evenodd" clip-rule="evenodd" d="M94.7197 35.9004L88.598 50.1165H85.8728L87.7438 45.7642L83.7373 35.9004H86.6253L88.1506 40.2323L89.1065 43.0593L90.1437 40.2933L91.9741 35.9004H94.7197Z" fill="#2CB5B4"/>
<path fill-rule="evenodd" clip-rule="evenodd" d="M103.404 45.927V40.6799C103.404 39.1545 102.57 37.9953 100.983 37.9953C99.4581 37.9953 98.4208 39.2766 98.4208 40.8019V45.927H95.96V35.8801H98.1768L98.3394 37.2428C99.3564 36.2462 100.373 35.7378 101.634 35.7378C103.993 35.7378 105.885 37.5072 105.885 40.6595V45.927H103.404Z" fill="#2CB5B4"/>
<path fill-rule="evenodd" clip-rule="evenodd" d="M115.973 35.9005H118.352V45.927H116.014L115.892 44.4627C115.322 45.6423 113.756 46.2117 112.637 46.2321C109.668 46.2524 107.472 44.422 107.472 40.9036C107.472 37.4462 109.77 35.6361 112.698 35.6564C114.041 35.6564 115.322 36.2869 115.892 37.2834L115.973 35.9005ZM109.953 40.9036C109.953 42.8153 111.275 43.9542 112.922 43.9542C116.827 43.9542 116.827 37.8733 112.922 37.8733C111.275 37.8733 109.953 38.9918 109.953 40.9036Z" fill="#2CB5B4"/>
<path fill-rule="evenodd" clip-rule="evenodd" d="M127.311 45.9269V40.5577C127.311 39.2357 126.62 38.0358 125.257 38.0358C123.915 38.0358 123.122 39.2357 123.122 40.5577V45.9269H120.641V35.88H122.939L123.122 37.1003C123.651 36.0834 124.81 35.7173 125.766 35.7173C126.966 35.7173 128.166 36.2054 128.735 37.5884C129.63 36.1647 130.789 35.758 132.091 35.758C134.938 35.758 136.341 37.507 136.341 40.517V45.9269H133.86V40.517C133.86 39.195 133.311 38.0765 131.969 38.0765C130.626 38.0765 129.793 39.2357 129.793 40.5577V45.9269H127.311Z" fill="#2CB5B4"/>
<path fill-rule="evenodd" clip-rule="evenodd" d="M141.374 33.0736C141.374 35.0057 138.445 35.0057 138.445 33.0736C138.445 31.1415 141.374 31.1415 141.374 33.0736ZM138.669 45.927H141.15V35.8598H138.669V45.927Z" fill="#2CB5B4"/>
<path fill-rule="evenodd" clip-rule="evenodd" d="M151.99 44.6457C150.831 45.7846 149.611 46.2321 148.126 46.2321C145.218 46.2321 142.798 44.483 142.798 40.9239C142.798 37.3648 145.218 35.6157 148.126 35.6157C149.55 35.6157 150.648 36.0225 151.746 37.1004L150.18 38.7477C149.591 38.2189 148.858 37.9546 148.167 37.9546C146.499 37.9546 145.279 39.1748 145.279 40.9239C145.279 42.8356 146.581 43.8525 148.126 43.8525C148.919 43.8525 149.713 43.6288 150.323 43.0187L151.99 44.6457Z" fill="#2CB5B4"/>
</svg>
